HIERARCHY
ROOT Pelvis
{
	OFFSET 0.000000 0.000000 0.000000
	CHANNELS 6 Xposition Yposition Zposition Xrotation Yrotation Zrotation
	JOINT LeftUpLeg_virtual
	{
		OFFSET 0.000000 0.000000 0.000000
		CHANNELS 3 Xrotation Yrotation Zrotation
		JOINT LeftUpLeg
		{
			OFFSET 8.479700 -4.795502 -0.379100
			CHANNELS 3 Xrotation Yrotation Zrotation
			JOINT LeftLeg
			{
				OFFSET 0.024144 -32.555107 0.112900
				CHANNELS 3 Xrotation Yrotation Zrotation
				JOINT LeftFoot
				{
					OFFSET -0.024144 -32.638630 -3.012600
					CHANNELS 3 Xrotation Yrotation Zrotation
					JOINT LeftToeBase
					{
						OFFSET 0.970200 -13.225400 11.864200
						CHANNELS 3 Xrotation Yrotation Zrotation
						End Site
						{
							OFFSET 0 0 0
						}
					}
				}
			}
		}
	}
	JOINT RightUpLeg_virtual
	{
		OFFSET 0.000000 0.000000 0.000000
		CHANNELS 3 Xrotation Yrotation Zrotation
		JOINT RightUpLeg
		{
			OFFSET -8.479700 -4.795502 -0.379100
			CHANNELS 3 Xrotation Yrotation Zrotation
			JOINT RightLeg
			{
				OFFSET -0.023144 -32.555092 0.112900
				CHANNELS 3 Xrotation Yrotation Zrotation
				JOINT RightFoot
				{
					OFFSET 0.023144 -32.638641 -3.012700
					CHANNELS 3 Xrotation Yrotation Zrotation
					JOINT RightToeBase
					{
						OFFSET -0.970200 -13.225400 11.864200
						CHANNELS 3 Xrotation Yrotation Zrotation
						End Site
						{
							OFFSET 0 0 0
						}
					}
				}
			}
		}
	}
	JOINT Hips_virtual
	{
		OFFSET 0.000000 0.000000 0.000000
		CHANNELS 3 Xrotation Yrotation Zrotation
		JOINT Hips
		{
			OFFSET -0.000000 -0.000000 -0.000000
			CHANNELS 3 Xrotation Yrotation Zrotation
			JOINT Spine
			{
				OFFSET 0.000000 7.722000 1.166200
				CHANNELS 3 Xrotation Yrotation Zrotation
				JOINT Spine1
				{
					OFFSET 0.000000 12.024101 0.248800
					CHANNELS 3 Xrotation Yrotation Zrotation
					JOINT Spine2
					{
						OFFSET 0.000000 11.502998 -0.491200
						CHANNELS 3 Xrotation Yrotation Zrotation
						JOINT Neck_virtual
						{
							OFFSET 0.000000 0.000000 0.000000
							CHANNELS 3 Xrotation Yrotation Zrotation
							JOINT Neck
							{
								OFFSET 0.000000 18.430702 -3.123100
								CHANNELS 3 Xrotation Yrotation Zrotation
								JOINT Head
								{
									OFFSET 0.000000 9.051102 1.034000
									CHANNELS 3 Xrotation Yrotation Zrotation
									End Site
									{
										OFFSET 0 0 0
									}
								}
							}
						}
						JOINT LeftShoulder_virtual
						{
							OFFSET 0.000000 0.000000 0.000000
							CHANNELS 3 Xrotation Yrotation Zrotation
							JOINT LeftShoulder
							{
								OFFSET 6.197800 13.665199 -4.064700
								CHANNELS 3 Xrotation Yrotation Zrotation
								JOINT LeftArm
								{
									OFFSET 7.778100 -0.187103 -1.709300
									CHANNELS 3 Xrotation Yrotation Zrotation
									JOINT LeftForeArm
									{
										OFFSET 22.049376 0.000000 0.000000
										CHANNELS 3 Xrotation Yrotation Zrotation
										JOINT LeftHand
										{
											OFFSET 23.009392 0.000000 0.000000
											CHANNELS 3 Xrotation Yrotation Zrotation
											End Site
											{
												OFFSET 0 0 0
											}
										}
									}
								}
							}
						}
						JOINT RightShoulder_virtual
						{
							OFFSET 0.000000 0.000000 0.000000
							CHANNELS 3 Xrotation Yrotation Zrotation
							JOINT RightShoulder
							{
								OFFSET -6.197800 13.665199 -4.064700
								CHANNELS 3 Xrotation Yrotation Zrotation
								JOINT RightArm
								{
									OFFSET -7.778100 -0.187103 -1.709300
									CHANNELS 3 Xrotation Yrotation Zrotation
									JOINT RightForeArm
									{
										OFFSET -22.049376 0.000000 0.000000
										CHANNELS 3 Xrotation Yrotation Zrotation
										JOINT RightHand
										{
											OFFSET -23.009392 0.000000 0.000000
											CHANNELS 3 Xrotation Yrotation Zrotation
											End Site
											{
												OFFSET 0 0 0
											}
										}
									}
								}
							}
						}
					}
				}
			}
		}
	}
}
MOTION
Frames: 5
Frame Time: 0.03333333
9.871934 74.012047 57.408096 0.000000 0.000000 0.000000 163.470305 47.415887 -174.119922 -49.374099 -5.869937 19.248025 27.535926 -43.160689 3.449662 -0.279381 -1.232361 -18.039228 0.000000 0.000000 0.000000 163.470305 47.415887 -174.119922 -33.297411 -26.867005 -23.893381 46.733759 -10.208385 6.358317 -17.681541 -4.172344 15.681489 0.000000 0.000000 0.000000 163.470305 47.415887 -174.119922 0.000001 0.000001 -0.000000 12.739037 3.715964 -3.242421 11.924108 11.118069 -15.175196 0.000000 0.000000 0.000000 1.101641 14.665745 -10.905805 10.816982 7.709371 8.813434 0.000000 0.000000 0.000000 1.101641 14.665745 -10.905805 0.441614 12.913608 -8.023904 24.289884 30.045159 -67.066659 -59.876655 -28.113467 -29.309534 0.000000 0.000000 0.000000 1.101641 14.665745 -10.905805 1.205993 17.292714 2.836857 -64.233387 30.995480 72.958079 51.591134 12.758251 4.090932 0.000000 0.000000 0.000000 
9.650572 74.117569 57.122250 0.000000 0.000000 0.000000 163.091134 49.680726 -173.408859 -48.823941 -5.675353 19.967884 28.608702 -41.561155 3.475207 -0.995908 -0.963720 -17.526674 0.000000 0.000000 0.000000 163.091134 49.680726 -173.408859 -33.815164 -26.517795 -24.395207 45.956866 -8.096804 6.544009 -17.034755 -3.914472 14.711456 0.000000 0.000000 0.000000 163.091134 49.680726 -173.408859 0.000001 -0.000000 -0.000001 12.601301 3.655622 -3.224593 11.663237 11.031783 -15.073982 0.000000 0.000000 0.000000 0.830131 14.573225 -10.818432 11.049073 7.758146 8.929907 0.000000 0.000000 0.000000 0.830131 14.573225 -10.818432 0.560216 12.569469 -8.809948 21.591037 29.149622 -64.927205 -59.006967 -28.841720 -29.005334 0.000000 0.000000 0.000000 0.830131 14.573225 -10.818432 1.220476 16.569691 3.011180 -64.817881 30.099995 76.400891 53.142949 8.465485 3.719460 0.000000 0.000000 0.000000 
9.399733 74.162956 56.818405 0.000000 0.000000 0.000000 162.532110 52.036018 -172.563814 -48.411254 -5.622576 20.627624 30.032622 -39.800615 3.603321 -1.874553 -0.649382 -17.025344 0.000000 0.000000 0.000000 162.532110 52.036018 -172.563814 -34.519315 -26.056880 -24.867167 45.368008 -6.158616 6.696041 -16.368738 -3.500686 13.870338 0.000000 0.000000 0.000000 162.532110 52.036018 -172.563814 0.000000 -0.000004 0.000000 12.425918 3.569347 -3.204196 11.349577 10.896049 -14.949133 0.000000 0.000000 0.000000 0.503249 14.434860 -10.712578 11.312817 7.850704 9.045669 0.000000 0.000000 0.000000 0.503249 14.434860 -10.712578 0.690161 12.814775 -9.700470 17.839872 28.067216 -61.512028 -57.352190 -29.386896 -29.329529 0.000000 0.000000 0.000000 0.503249 14.434860 -10.712578 1.222240 16.439876 2.931219 -60.208281 28.479567 76.380810 52.535442 10.352261 -2.661518 0.000000 0.000000 0.000000 
9.175335 74.176956 56.422279 0.000000 0.000000 0.000000 161.676820 54.626282 -171.455493 -48.162789 -5.472085 21.468219 31.748785 -38.026057 3.510536 -2.945635 -0.329134 -16.304556 0.000000 0.000000 0.000000 161.676820 54.626282 -171.455493 -35.204735 -25.229522 -25.081674 44.766808 -4.213611 6.783606 -15.630753 -3.300898 13.154161 0.000000 0.000000 0.000000 161.676820 54.626282 -171.455493 0.000000 0.000001 0.000000 12.219136 3.467021 -3.207093 10.965555 10.728928 -14.870415 0.000000 0.000000 0.000000 0.112413 14.271534 -10.661718 11.492985 7.964791 9.125444 0.000000 0.000000 0.000000 0.112413 14.271534 -10.661718 0.813247 12.488586 -10.557388 13.645979 26.593014 -57.689171 -53.947064 -30.883820 -28.900853 0.000000 0.000000 0.000000 0.112413 14.271534 -10.661718 1.273168 15.702841 2.792938 -54.445634 25.923126 69.909834 52.735921 24.416345 -3.568413 0.000000 0.000000 0.000000 
8.934682 74.149361 56.002026 0.000000 0.000000 0.000000 160.632963 57.191558 -170.126379 -47.971714 -5.316959 22.233927 33.521616 -36.459666 3.334772 -4.049845 0.197287 -15.549762 0.000000 0.000000 0.000000 160.632963 57.191558 -170.126379 -35.955396 -24.080264 -24.992625 44.365787 -2.729233 6.475422 -14.890212 -3.171457 12.847786 0.000000 0.000000 0.000000 160.632963 57.191558 -170.126379 -0.000001 -0.000000 0.000001 12.023541 3.339957 -3.231764 10.585798 10.507771 -14.834070 0.000000 0.000000 0.000000 -0.267559 14.060034 -10.668938 11.387536 8.162114 9.160966 0.000000 0.000000 0.000000 -0.267559 14.060034 -10.668938 0.941475 11.960431 -11.513459 9.077664 24.897631 -53.138882 -50.551268 -31.508014 -28.502547 0.000000 0.000000 0.000000 -0.267559 14.060034 -10.668938 1.317912 15.304432 2.430716 -50.414661 23.549242 65.376303 52.195220 34.352959 -3.495260 0.000000 0.000000 0.000000 
